<svg width="59" height="37" viewBox="0 0 59 37" fill="none" xmlns="http://www.w3.org/2000/svg">
<path fill-rule="evenodd" clip-rule="evenodd" d="M42.5092 36.7719L42.5095 36.7714H49.7509V36.7622C49.8513 36.7676 49.9521 36.7708 50.0533 36.7719H50.2058C54.9606 36.721 58.8024 31.9153 58.8024 25.9944C58.8024 20.042 54.9194 15.2165 50.1296 15.2165C48.3436 15.2165 46.6838 15.8874 45.3043 17.0373C43.5039 7.359 37.3368 0.228516 30.0057 0.228516C23.7074 0.228516 18.2681 5.49162 15.719 13.1118C14.1792 11.9638 12.3767 11.3037 10.4501 11.3037C4.78787 11.3037 0.197754 17.005 0.197754 24.038C0.197754 30.9132 4.58425 36.5158 10.0707 36.7637V36.7714H10.329L10.3736 36.7719H10.5266L10.5711 36.7714H17.502L17.5022 36.7719H23.8546L26.8477 28.1961L20.2386 29.8152L29.5008 20.552L38.7631 29.8152L32.1539 28.1961L35.147 36.7719H42.5092Z" fill="#F0F0F0"/>
</svg>
