<svg width="40" height="40" viewBox="0 0 40 40" fill="none" xmlns="http://www.w3.org/2000/svg">
	<rect y="-6.10352e-05" width="40" height="40" rx="4" fill="#7F54B3"/>
	<path fill-rule="evenodd" clip-rule="evenodd"
		  d="M9.14726 13.3333H30.8484C31.1751 13.3331 31.4986 13.3977 31.8001 13.5234C32.1016 13.6491 32.3753 13.8333 32.6051 14.0654C33.0718 14.5368 33.3335 15.1733 33.3333 15.8366V24.1878C33.334 24.8511 33.0728 25.4879 32.6064 25.9597C32.3768 26.192 32.1033 26.3765 31.8019 26.5025C31.5005 26.6284 31.1771 26.6933 30.8504 26.6935H23.0671L24.1319 29.3331L19.431 26.6935H9.14726C7.77795 26.6922 6.66798 25.572 6.66666 24.1898V15.8366C6.66798 14.4551 7.77795 13.3346 9.14726 13.3333Z"
		  fill="white"/>
	<path
		d="M8.17093 15.4598C8.25062 15.3564 8.35248 15.2721 8.46902 15.2133C8.58557 15.1544 8.71383 15.1224 8.84437 15.1197C9.39144 15.0801 9.70555 15.3434 9.78672 15.9099C10.1253 18.2064 10.4866 20.1554 10.871 21.7567L13.2338 17.167C13.4496 16.7533 13.7178 16.5332 14.0445 16.5068C14.5173 16.4728 14.8133 16.7806 14.9314 17.4303C15.1529 18.7156 15.4947 19.9771 15.9523 21.1984C16.2347 18.4047 16.7082 16.3863 17.3731 15.1437C17.4359 15.0053 17.5353 14.8866 17.6607 14.8007C17.7861 14.7147 17.9327 14.6647 18.0844 14.6561C18.2069 14.6463 18.3301 14.6607 18.447 14.6985C18.564 14.7363 18.6723 14.7968 18.7658 14.8765C18.9605 15.0276 19.0809 15.2586 19.0944 15.5083C19.1093 15.69 19.0719 15.8722 18.9865 16.0333C18.5662 16.8305 18.2191 18.1559 17.9452 20.0096C17.6779 21.7989 17.5789 23.1979 17.6489 24.2073C17.6734 24.4548 17.6301 24.7043 17.5238 24.9292C17.4717 25.0395 17.3909 25.1338 17.2898 25.2022C17.1888 25.2706 17.0712 25.3105 16.9494 25.3179C16.662 25.3377 16.3776 25.2014 16.0968 24.9094C15.095 23.8592 14.3012 22.2975 13.7155 20.2241C13.0193 21.634 12.4996 22.6928 12.1571 23.4002C11.5253 24.6478 10.9831 25.2859 10.5304 25.3146C10.2358 25.3361 9.98437 25.0843 9.77583 24.5593C9.22613 23.1181 8.63518 20.3316 8.00298 16.2006C7.97904 16.0722 7.98162 15.9402 8.01055 15.8128C8.03949 15.6854 8.09418 15.5653 8.17126 15.4598H8.17093Z"
		fill="#7F54B3"/>
	<path fill-rule="evenodd" clip-rule="evenodd"
		  d="M29.7311 16.0518C30.4662 16.1956 31.1008 16.6734 31.4617 17.3541C31.8115 17.9579 31.9864 18.6944 31.9864 19.5635C31.9959 20.6803 31.7053 21.7791 31.145 22.7453C30.4996 23.8691 29.6532 24.431 28.6063 24.431C28.409 24.4301 28.2124 24.4078 28.02 24.3647C27.2848 24.2208 26.65 23.743 26.2893 23.062C25.9396 22.4476 25.7647 21.7059 25.7647 20.8368C25.7532 19.7252 26.044 18.6313 26.6061 17.6722C27.2617 16.5484 28.1077 15.9865 29.1448 15.9865C29.342 15.987 29.5386 16.0089 29.7311 16.0518ZM29.2725 22.1348C29.6744 21.762 29.9492 21.2067 30.098 20.4696V20.4729C30.1515 20.2016 30.1779 19.9258 30.1769 19.649C30.174 19.2988 30.1096 18.9519 29.9865 18.6241C29.8278 18.1948 29.6166 17.9527 29.3526 17.8982C28.9616 17.8098 28.5862 18.0404 28.2255 18.5905C27.9507 18.9944 27.7567 19.4477 27.6544 19.9255C27.6009 20.197 27.5745 20.4732 27.5752 20.7503C27.5785 21.1001 27.6431 21.4462 27.7659 21.7719C27.9243 22.1982 28.1361 22.4404 28.4007 22.4978C28.6654 22.5555 28.956 22.4348 29.2725 22.1348ZM23.0663 16.0518C23.8015 16.1963 24.436 16.6737 24.7973 17.3541H24.7963C25.1454 17.9579 25.3199 18.6944 25.3199 19.5635C25.3297 20.6802 25.0394 21.7791 24.4792 22.7453C23.8338 23.8691 22.9875 24.431 21.9402 24.431C21.7426 24.43 21.5457 24.4078 21.3529 24.3647C20.6177 24.2202 19.9829 23.7427 19.6219 23.062C19.2728 22.4476 19.0983 21.7059 19.0983 20.8368C19.0867 19.7252 19.3775 18.6313 19.9397 17.6722C20.5946 16.5484 21.441 15.9865 22.479 15.9865C22.6766 15.9871 22.8735 16.009 23.0663 16.0518ZM22.6077 22.1348C23.0102 21.762 23.2854 21.2067 23.4332 20.4696V20.4729C23.487 20.2016 23.5134 19.9258 23.5124 19.649C23.5089 19.2989 23.4444 18.952 23.3217 18.6241C23.1633 18.1948 22.9518 17.9527 22.6879 17.8982C22.2969 17.8098 21.9211 18.0404 21.5608 18.5905C21.2858 18.9943 21.0917 19.4477 20.9893 19.9255C20.9355 20.1967 20.9088 20.4732 20.9094 20.7503C20.9131 21.1001 20.9781 21.4466 21.1008 21.7719C21.2588 22.2012 21.4707 22.4427 21.7346 22.4978C21.9986 22.5529 22.2909 22.4318 22.6077 22.1348Z"
		  fill="#7F54B3"/>
</svg>
