<svg width="260" height="254" viewBox="0 0 260 254" fill="none" xmlns="http://www.w3.org/2000/svg">
<path fill-rule="evenodd" clip-rule="evenodd" d="M198.388 98.8173C218.119 75.5124 225.054 50.658 213.938 32.4626C195.585 2.4211 134.975 1.89171 78.5564 31.2954C22.1483 60.6976 -8.70536 108.891 9.6576 138.931C21.5934 158.469 51.407 165.523 86.3126 159.98C87.4222 165.21 89.7866 170.188 93.2271 174.791C73.3983 180.519 59.7486 192.465 58.9917 207.194C57.8351 229.7 87.2187 250.17 124.626 252.912C162.034 255.665 193.29 239.648 194.447 217.142C194.703 212.146 193.455 207.25 190.948 202.627C227.891 196.817 256.803 176.741 259.754 152.358C262.842 126.849 236.491 104.953 198.388 98.8173Z" fill="#E6E2DE" fill-opacity="0.5"/>
<path d="M238.313 239.813C238.313 239.813 236 227.439 235.591 224.563C235.263 222.752 234.936 221.022 234.445 219.487C233.871 217.399 232.94 216.048 231.763 215.219C231.732 215.198 231.589 215.096 231.558 215.076C230.371 214.257 228.785 213.858 226.625 214.042C225.018 214.103 223.279 214.4 221.467 214.728C218.632 215.331 206.218 217.45 206.218 217.45L208.06 227.736L217.547 226.027C211.969 233.928 202.932 238.687 193.076 238.677C176.547 238.677 163.109 225.228 163.109 208.699H152.609C152.609 231.011 170.755 249.167 193.076 249.177C206.494 249.177 218.775 242.658 226.288 231.86L228.017 241.645L238.303 239.823L238.313 239.813Z" fill="#D1C1FF"/>
<path d="M194.335 164.987C180.918 164.987 168.636 171.507 161.124 182.304L159.394 172.52L149.108 174.342C149.108 174.342 151.421 186.715 151.831 189.591C152.158 191.403 152.486 193.132 152.977 194.668C153.55 196.755 154.482 198.106 155.659 198.935C155.689 198.956 155.833 199.058 155.863 199.079C157.05 199.897 158.637 200.297 160.796 200.112C162.403 200.051 164.143 199.754 165.955 199.427C168.79 198.823 181.204 196.704 181.204 196.704L179.362 186.418L169.874 188.128C175.452 180.227 184.489 175.467 194.345 175.478C206.678 175.478 217.291 182.969 221.887 193.644C225.172 192.181 228.294 190.584 231.251 188.865C224.906 174.802 210.762 164.977 194.356 164.977L194.335 164.987Z" fill="#720EEC"/>
<path d="M221.876 193.644C225.162 192.181 228.283 190.584 231.241 188.865C228.6 183.021 224.609 177.934 219.676 173.953L209.84 179.827C215.152 183.062 219.4 187.872 221.876 193.634V193.644Z" fill="#3C087E"/>
<path d="M170.562 68.4499C174.595 68.4499 178.218 69.4529 181.646 71.07V56.3526C181.646 47.2847 176.406 42.0446 167.339 42.0446H18.5682C9.50037 42.0446 4.26025 47.08 4.26025 56.3526V145.66H74.2138C70.7852 150.9 67.3566 156.949 67.3566 164C67.3566 178.308 78.4407 189.802 92.7589 189.802C107.077 189.802 118.161 178.114 118.161 164C118.161 156.744 114.937 150.695 111.304 145.66H181.657V116.634C178.228 118.252 174.605 119.255 170.573 119.255C156.265 119.255 144.771 108.17 144.771 93.8522C144.771 79.534 156.265 68.4499 170.573 68.4499H170.562Z" fill="#D1C1FF"/>
<path d="M84.0086 108.365H18.7425V115.826H84.0188V108.365H84.0086Z" fill="#720EEC"/>
<path d="M64.9927 123.287H18.7425V130.748H65.0029V123.287H64.9927Z" fill="#720EEC"/>
<path d="M84.0079 57.2531H18.7725V100.648H84.0181V57.2531H84.0079Z" fill="#720EEC"/>
<path d="M84.0079 57.2531L18.7725 100.648H84.0181V57.2531H84.0079Z" fill="#3C087E"/>
</svg>
