<svg width="217" height="158" fill="none" xmlns="http://www.w3.org/2000/svg"><rect x="54" y="43" width="114" height="61" rx="10" fill="#F6F7F7"/><rect x="101.302" y="65.677" width="83.698" height="60.323" rx="12" fill="#fff" filter="url(#filter0_d_871_14629)"/><path d="M119.034 97.927a2.78 2.78 0 1 1 5.559 0v2.78a2.78 2.78 0 0 1-5.559 0v-2.78z" fill="#6108CE"/><rect x="130.15" y="90.974" width="5.559" height="12.507" rx="2.779" fill="#A77EFF"/><rect x="141.267" y="86.81" width="5.559" height="16.676" rx="2.779" fill="#6108CE"/><rect x="152.388" y="82.636" width="5.559" height="20.846" rx="2.779" fill="#A77EFF"/><rect x="163.504" y="78.471" width="5.559" height="25.015" rx="2.779" fill="#6108CE"/><path d="M119.034 110.468a2.91 2.91 0 1 1 5.818 0 2.91 2.91 0 0 1-5.818 0z" fill="#F6F7F7"/><rect x="130.152" y="107.559" width="5.817" height="5.817" rx="2.909" fill="#F6F7F7"/><rect x="141.267" y="107.559" width="5.817" height="5.817" rx="2.909" fill="#F6F7F7"/><rect x="152.39" y="107.559" width="5.817" height="5.817" rx="2.909" fill="#F6F7F7"/><rect x="163.506" y="107.559" width="5.817" height="5.817" rx="2.909" fill="#F6F7F7"/><rect x="47.766" y="32.5" width="74.649" height="59.569" rx="12" fill="#fff" filter="url(#filter1_d_871_14629)"/><rect x="63.601" y="43.062" width="14.327" height="9.802" rx="2" fill="#F2EDFF"/><path d="M70.515 52.755v-.8c-1.372-.079-2.368-.772-2.407-1.988l.005-.005h1.303v.005c.084.498.43.82 1.1.884v-1.753l-.328-.078c-1.275-.288-1.973-.86-1.973-1.91v-.01c0-1.161.957-1.894 2.3-1.972v-.82h.562v.82c1.352.103 2.236.874 2.285 2.022l-.005.005-1.294.004-.005-.01c-.068-.522-.434-.834-.981-.917v1.699l.346.073c1.333.303 2.031.84 2.031 1.91v.01c0 1.215-.99 1.933-2.377 2.026v.805h-.562zm-.937-5.752c0 .376.278.62.937.796v-1.572c-.615.068-.937.37-.937.766v.01zm2.514 3.057c0-.425-.259-.645-1.015-.835v1.63c.678-.063 1.015-.346 1.015-.785v-.01z" fill="#6108CE"/><rect x="85.468" y="46.076" width="12.065" height="3.12" rx="1.56" fill="#F6F7F7"/><rect x="63.601" y="55.875" width="14.327" height="9.802" rx="2" fill="#F2EDFF"/><path d="M68.05 64.728v-1.103c.859-.17 1.347-.674 1.347-1.435 0-.171-.025-.333-.064-.494H68.05v-.722h1.06c-.108-.318-.205-.64-.205-1.001 0-1.265 1.02-2.041 2.675-2.041.616 0 1.221.107 1.578.258v1.128c-.313-.136-.85-.239-1.367-.239-.923 0-1.446.386-1.446 1.07 0 .292.078.556.171.825h2.173v.722h-1.953c.03.137.044.279.044.43 0 .605-.269 1.064-.791 1.372v.054h3.476v1.176H68.05z" fill="#6108CE"/><rect x="85.468" y="59.646" width="18.851" height="3.016" rx="1.508" fill="#F6F7F7"/><rect x="63.601" y="68.69" width="14.327" height="9.802" rx="2" fill="#F2EDFF"/><path d="M68.381 76.391v-.561h1.665v-.699h-1.665v-.561h1.387l-2.095-3.78h1.553l1.519 3.023h.063l1.514-3.023h1.533l-2.1 3.78h1.387v.561h-1.66v.699h1.66v.561h-1.66v1.152h-1.436v-1.152h-1.665z" fill="#6108CE"/><rect x="85.468" y="72.461" width="13.573" height="3.016" rx="1.508" fill="#F6F7F7"/><path fill-rule="evenodd" clip-rule="evenodd" d="M38.685 83.022a6 6 0 0 0-6 6v18.799a6 6 0 0 0 6 6h36.41c2.27 0 4.434-.964 5.951-2.653l7.85-8.736a6 6 0 0 0 0-8.02l-7.85-8.738a8 8 0 0 0-5.95-2.653h-36.41zm41.882 18.85a3.393 3.393 0 1 0 0-6.786 3.393 3.393 0 0 0 0 6.786z" fill="#6108CE" filter="url(#filter2_d_871_14629)"/><circle cx="43.998" cy="92.827" r="3.201" transform="rotate(45 43.998 92.827)" fill="#6108CE" stroke="#F7EDF7" stroke-width="3"/><circle cx="54.567" cy="103.378" r="3.201" transform="rotate(45 54.567 103.378)" fill="#6108CE" stroke="#F7EDF7" stroke-width="3"/><path stroke="#F7EDF7" stroke-width="3" stroke-linecap="round" d="M54.079 93.028L43.443 103.665"/><path d="M85.333 99.455a2 2 0 1 0-3.556-1.831l3.556 1.831zm8.034 5.624l.761 1.85-.76-1.85zm-11.59-7.455c-1.54 2.989-.711 6.406 1.749 8.47 2.486 2.086 6.317 2.599 10.602.835l-1.522-3.699c-3.268 1.345-5.433.703-6.51-.2-1.102-.925-1.403-2.332-.763-3.575l-3.556-1.831zm12.351 9.305C101.862 103.745 103 96.039 103 92h-4c0 3.655-1.044 9.027-6.394 11.23l1.522 3.699z" fill="#A77EFF"/><defs><filter id="filter0_d_871_14629" x="69.302" y="33.678" width="147.698" height="124.323" filterUnits="userSpaceOnUse" color-interpolation-filters="sRGB"><feFlood flood-opacity="0" result="BackgroundImageFix"/><feColorMatrix in="SourceAlpha" values="0 0 0 0 0 0 0 0 0 0 0 0 0 0 0 0 0 0 127 0" result="hardAlpha"/><feOffset/><feGaussianBlur stdDeviation="16"/><feComposite in2="hardAlpha" operator="out"/><feColorMatrix values="0 0 0 0 0 0 0 0 0 0 0 0 0 0 0 0 0 0 0.1 0"/><feBlend in2="BackgroundImageFix" result="effect1_dropShadow_871_14629"/><feBlend in="SourceGraphic" in2="effect1_dropShadow_871_14629" result="shape"/></filter><filter id="filter1_d_871_14629" x="15.766" y=".5" width="138.649" height="123.569" filterUnits="userSpaceOnUse" color-interpolation-filters="sRGB"><feFlood flood-opacity="0" result="BackgroundImageFix"/><feColorMatrix in="SourceAlpha" values="0 0 0 0 0 0 0 0 0 0 0 0 0 0 0 0 0 0 127 0" result="hardAlpha"/><feOffset/><feGaussianBlur stdDeviation="16"/><feComposite in2="hardAlpha" operator="out"/><feColorMatrix values="0 0 0 0 0 0 0 0 0 0 0 0 0 0 0 0 0 0 0.1 0"/><feBlend in2="BackgroundImageFix" result="effect1_dropShadow_871_14629"/><feBlend in="SourceGraphic" in2="effect1_dropShadow_871_14629" result="shape"/></filter><filter id="filter2_d_871_14629" x=".685" y="51.022" width="121.748" height="94.8" filterUnits="userSpaceOnUse" color-interpolation-filters="sRGB"><feFlood flood-opacity="0" result="BackgroundImageFix"/><feColorMatrix in="SourceAlpha" values="0 0 0 0 0 0 0 0 0 0 0 0 0 0 0 0 0 0 127 0" result="hardAlpha"/><feOffset/><feGaussianBlur stdDeviation="16"/><feComposite in2="hardAlpha" operator="out"/><feColorMatrix values="0 0 0 0 0 0 0 0 0 0 0 0 0 0 0 0 0 0 0.1 0"/><feBlend in2="BackgroundImageFix" result="effect1_dropShadow_871_14629"/><feBlend in="SourceGraphic" in2="effect1_dropShadow_871_14629" result="shape"/></filter></defs></svg>